<svg xmlns="http://www.w3.org/2000/svg" viewBox="0 0 355.6 274.54"><defs><style>.cls-1{fill:#ff8e77;}.cls-2{fill:#434242;}</style></defs><g id="레이어_2" data-name="레이어 2"><ellipse class="cls-1" cx="115.02" cy="115.66" rx="45.15" ry="60.2"/><path class="cls-2" d="M93.11,177.76c-16.51-18.61-36.2-46.55-36.2-74a57.89,57.89,0,0,1,115.78,0c0,27.48-19.69,55.42-36.2,74h0a29,29,0,0,1-43.38,0Zm31.34-10.69c12-13.52,32.14-39.73,32.14-63.33a41.79,41.79,0,0,0-83.58,0c0,23.6,20.14,49.81,32.14,63.33a12.92,12.92,0,0,0,19.3,0Z"/><path class="cls-2" d="M101.05,113.21a8.16,8.16,0,0,1-1.52-1.53c-6.87-9-6.45-20.54,1-28s19-7.88,28-1a8.16,8.16,0,0,1,1.52,1.53c6.87,9,6.46,20.54-1,28a19.87,19.87,0,0,1-14.17,5.9A22.89,22.89,0,0,1,101.05,113.21Zm10.88-18.15c-1.51,1.51-1.57,3.69-.22,6,2.27,1.36,4.45,1.29,6-.22s1.57-3.69.22-6C115.62,93.49,113.44,93.54,111.93,95.06Z"/><path class="cls-2" d="M216,243.6h18.2a8.05,8.05,0,0,0,0-16.1H224V85.05A13,13,0,0,1,237,72.1h43.74a13,13,0,0,1,12.69,10.37l9.29,45.71a29,29,0,0,0,8.21,15l24.7,24a13,13,0,0,1,3.92,9.28v38a13,13,0,0,1-12.95,12.95,8.05,8.05,0,0,0,0,16.1,29.08,29.08,0,0,0,29.05-29v-38a29.23,29.23,0,0,0-8.8-20.83l-24.69-24a12.83,12.83,0,0,1-3.66-6.71l-9.29-45.71A29.15,29.15,0,0,0,280.69,56H237a29.08,29.08,0,0,0-29,29.05v150.5A8,8,0,0,0,216,243.6Z"/><path class="cls-2" d="M121.8,243.6H216a8.05,8.05,0,1,0,0-16.1H121.8a8.05,8.05,0,1,0,0,16.1Z"/><path class="cls-2" d="M29.05,243.6a8.05,8.05,0,1,0,0-16.1A13,13,0,0,1,16.1,214.55V29.05a13,13,0,0,1,13-12.95H195a13,13,0,0,1,13,13v14a8,8,0,0,0,16.1,0v-14A29.08,29.08,0,0,0,195,0H29.05A29.08,29.08,0,0,0,0,29.05v185.5A29.08,29.08,0,0,0,29.05,243.6Z"/><path class="cls-2" d="M216,141.4h70.7a8,8,0,1,0,0-16.1H216a8,8,0,1,0,0,16.1Z"/><path class="cls-2" d="M248.64,242.41a32.13,32.13,0,1,1,32.13,32.13A32.16,32.16,0,0,1,248.64,242.41Zm16.1,0a16,16,0,1,0,16-16A16,16,0,0,0,264.74,242.41Z"/><path class="cls-2" d="M44.1,242.41a32.13,32.13,0,1,1,32.13,32.13A32.16,32.16,0,0,1,44.1,242.41Zm16.1,0a16,16,0,1,0,16-16A16,16,0,0,0,60.2,242.41Z"/></g></svg>