<svg xmlns="http://www.w3.org/2000/svg" viewBox="0 0 110.08 110.39"><defs><style>.cls-1{fill:#ff8e77;}.cls-2,.cls-3{fill:#434242;}.cls-3{stroke:#434242;stroke-miterlimit:10;}</style></defs><g id="레이어_2" data-name="레이어 2"><g id="icons"><circle class="cls-1" cx="80.53" cy="80.84" r="29.56"/><path class="cls-2" d="M94.69,99.37H67.85a2.4,2.4,0,0,1-2.4-2.4V75.5a2.4,2.4,0,0,1,2.4-2.4H94.69a2.39,2.39,0,0,1,2.4,2.4V97A2.39,2.39,0,0,1,94.69,99.37Zm-24.44-4.8h22V77.9h-22Z"/><path class="cls-2" d="M88.21,77.9H74.34a3.53,3.53,0,0,1-3.52-3.52V70.13a10.45,10.45,0,0,1,20.9,0v4.25A3.52,3.52,0,0,1,88.21,77.9ZM75.62,73.1h11.3v-3a5.65,5.65,0,0,0-11.3,0Z"/><path class="cls-3" d="M45,58.18A28.84,28.84,0,1,1,73.84,29.34,28.87,28.87,0,0,1,45,58.18ZM45,4.5A24.84,24.84,0,1,0,69.84,29.34,24.86,24.86,0,0,0,45,4.5Z"/><path class="cls-3" d="M56.18,107.39H.5V98.68A44.55,44.55,0,0,1,45,54.18a2,2,0,0,1,0,4A40.55,40.55,0,0,0,4.5,98.68v4.71H56.18a2,2,0,0,1,0,4Z"/></g></g></svg>