<svg xmlns="http://www.w3.org/2000/svg" viewBox="0 0 90.99 80.78"><defs><style>.cls-1{fill:#ff8e77;}.cls-2{fill:#434242;}</style></defs><g id="레이어_2" data-name="레이어 2"><g id="레이어_1-2" data-name="레이어 1"><circle class="cls-1" cx="71.08" cy="53.45" r="15.14"/><path class="cls-2" d="M81.84,36.54l.87-1.18a6.21,6.21,0,0,0-3.31-9.7L58.93,20,46.65,2.62a6.21,6.21,0,0,0-10.25.16L24.65,20.49,4.37,26.81a6.21,6.21,0,0,0-3,9.79L14.56,53.24,14.3,74.49a6.21,6.21,0,0,0,8.38,5.9L42.59,73l20.13,6.81a2.8,2.8,0,0,0,1.8-5.3L43.45,67.34a2.88,2.88,0,0,0-1.88,0L20.73,75.14a.57.57,0,0,1-.57-.07.59.59,0,0,1-.26-.51l.27-22.24a2.8,2.8,0,0,0-.6-1.78L5.73,33.12a.58.58,0,0,1-.1-.56.6.6,0,0,1,.4-.41l21.24-6.61a2.74,2.74,0,0,0,1.5-1.13L41.07,5.88a.56.56,0,0,1,.5-.28.58.58,0,0,1,.51.26L54.93,24a2.77,2.77,0,0,0,1.54,1.08l21.43,6a.57.57,0,0,1,.41.39.6.6,0,0,1-.09.57l-1.6,2.16a19.85,19.85,0,1,0,5.22,2.36ZM71.16,67.47A14.23,14.23,0,1,1,85.39,53.24,14.25,14.25,0,0,1,71.16,67.47Z"/><polygon class="cls-2" points="73.54 44.7 68.78 44.7 68.78 50.86 62.62 50.86 62.62 55.62 68.78 55.62 68.78 61.78 73.54 61.78 73.54 55.62 79.7 55.62 79.7 50.86 73.54 50.86 73.54 44.7"/></g></g></svg>