<svg xmlns="http://www.w3.org/2000/svg" viewBox="0 0 93.12 93.09"><defs><style>.cls-1{fill:#ff8e77;}.cls-2{fill:#434242;}</style></defs><g id="레이어_2" data-name="레이어 2"><g id="레이어_1-2" data-name="레이어 1"><rect class="cls-1" x="47.75" y="6.91" width="38.27" height="39.73" rx="4.53" transform="translate(-4.92 32.62) rotate(-26.47)"/><path class="cls-2" d="M92.64,32.3,78.34,2.74A4.9,4.9,0,0,0,74,0a4.79,4.79,0,0,0-2.11.48L42.29,14.78l-.16.1A4.86,4.86,0,0,0,37.7,12H4.86A4.87,4.87,0,0,0,0,16.86V49.69a4.84,4.84,0,0,0,.94,2.85A4.84,4.84,0,0,0,0,55.39V88.22a4.87,4.87,0,0,0,4.86,4.87H37.7a4.76,4.76,0,0,0,2.86-1,4.81,4.81,0,0,0,2.87,1H76.26a4.87,4.87,0,0,0,4.87-4.87V55.39a4.87,4.87,0,0,0-4.87-4.86H66.13L90.38,38.8a4.88,4.88,0,0,0,2.26-6.5ZM4,16.86A.88.88,0,0,1,4.86,16H37.7a.88.88,0,0,1,.86.87V49.69a.88.88,0,0,1-.77.85h-33A.88.88,0,0,1,4,49.69ZM38.56,88.22a.88.88,0,0,1-.86.87H4.86A.88.88,0,0,1,4,88.22V55.39a.88.88,0,0,1,.77-.85h33a.88.88,0,0,1,.77.85ZM77.13,55.39V88.22a.88.88,0,0,1-.87.87H43.43a.88.88,0,0,1-.86-.87V55.39a.87.87,0,0,1,.86-.86H76.26A.88.88,0,0,1,77.13,55.39Zm-33.7-4.86a5.23,5.23,0,0,0-1,.09,4.73,4.73,0,0,0,.1-.93V26.51l11.62,24ZM89.07,34.7a.87.87,0,0,1-.43.5L59.08,49.49a.87.87,0,0,1-1.15-.4L43.63,19.54a.86.86,0,0,1,0-.66.89.89,0,0,1,.44-.5L73.59,4.08A.91.91,0,0,1,74,4a.86.86,0,0,1,.78.49L89,34A.85.85,0,0,1,89.07,34.7Z"/><polygon class="cls-2" points="70.19 37.37 73.91 35.35 70.14 28.41 77.08 24.64 75.06 20.92 68.12 24.69 64.34 17.75 60.63 19.77 64.4 26.71 57.45 30.48 59.47 34.2 66.42 30.43 70.19 37.37"/><rect class="cls-2" x="19.33" y="22.99" width="4.23" height="20.04" transform="translate(-11.78 54.12) rotate(-89.41)"/><rect class="cls-2" x="49.41" y="69.85" width="20.87" height="3.92"/><path class="cls-2" d="M59.85,66.6a2.66,2.66,0,1,0-2.66-2.66A2.66,2.66,0,0,0,59.85,66.6Z"/><path class="cls-2" d="M59.85,77.05a2.66,2.66,0,1,0,2.66,2.66A2.67,2.67,0,0,0,59.85,77.05Z"/><polygon class="cls-2" points="26.87 63.23 21.28 68.81 15.69 63.22 12.7 66.22 18.29 71.81 12.7 77.4 15.69 80.39 21.28 74.8 26.87 80.39 29.86 77.39 24.27 71.81 29.86 66.22 26.87 63.23"/></g></g></svg>