<?xml version="1.0" encoding="UTF-8" standalone="no"?> <svg width="64" height="64" viewBox="0 0 64 64" fill="none" xmlns="http://www.w3.org/2000/svg">
<path d="M17 25H13C11.4092 25.0016 9.88399 25.6342 8.75911 26.7591C7.63424 27.884 7.00159 29.4092 7 31V49C7 49.2652 7.10536 49.5196 7.29289 49.7071C7.48043 49.8946 7.73478 50 8 50C8.26522 50 8.51957 49.8946 8.70711 49.7071C8.89464 49.5196 9 49.2652 9 49V47.46C10.0967 48.4509 11.522 48.9996 13 49H25C25.2652 49 25.5196 48.8946 25.7071 48.7071C25.8946 48.5196 26 48.2652 26 48C26 47.7348 25.8946 47.4804 25.7071 47.2929C25.5196 47.1054 25.2652 47 25 47H13C11.9391 47 10.9217 46.5786 10.1716 45.8284C9.42143 45.0783 9 44.0609 9 43V31C9 29.9391 9.42143 28.9217 10.1716 28.1716C10.9217 27.4214 11.9391 27 13 27H17C17.2652 27 17.5196 26.8946 17.7071 26.7071C17.8946 26.5196 18 26.2652 18 26C18 25.7348 17.8946 25.4804 17.7071 25.2929C17.5196 25.1054 17.2652 25 17 25Z" fill="black"/>
<path d="M17 45C17.5523 45 18 44.5523 18 44C18 43.4477 17.5523 43 17 43C16.4477 43 16 43.4477 16 44C16 44.5523 16.4477 45 17 45Z" fill="black"/>
<path d="M24 45C24.5523 45 25 44.5523 25 44C25 43.4477 24.5523 43 24 43C23.4477 43 23 43.4477 23 44C23 44.5523 23.4477 45 24 45Z" fill="black"/>
<path d="M38 56C38.5933 56 39.1734 55.8241 39.6667 55.4944C40.1601 55.1648 40.5446 54.6962 40.7716 54.148C40.9987 53.5999 41.0581 52.9967 40.9424 52.4147C40.8266 51.8328 40.5409 51.2982 40.1213 50.8787C39.7018 50.4591 39.1672 50.1734 38.5853 50.0576C38.0033 49.9419 37.4001 50.0013 36.852 50.2284C36.3038 50.4554 35.8352 50.8399 35.5056 51.3333C35.1759 51.8266 35 52.4067 35 53C35 53.7957 35.3161 54.5587 35.8787 55.1213C36.4413 55.6839 37.2044 56 38 56V56ZM38 52C38.1978 52 38.3911 52.0586 38.5556 52.1685C38.72 52.2784 38.8482 52.4346 38.9239 52.6173C38.9996 52.8 39.0194 53.0011 38.9808 53.1951C38.9422 53.3891 38.847 53.5673 38.7071 53.7071C38.5673 53.847 38.3891 53.9422 38.1951 53.9808C38.0011 54.0194 37.8 53.9996 37.6173 53.9239C37.4346 53.8482 37.2784 53.72 37.1685 53.5556C37.0586 53.3911 37 53.1978 37 53C37 52.7348 37.1054 52.4804 37.2929 52.2929C37.4804 52.1054 37.7348 52 38 52Z" fill="black"/>
<path d="M53 57.026V54C52.9956 52.8992 52.628 51.8306 51.9543 50.96C51.2807 50.0894 50.3385 49.4655 49.274 49.185C50.3758 48.0703 50.9956 46.5673 51 45V39C50.9984 37.6744 50.4711 36.4036 49.5338 35.4662C48.5964 34.5289 47.3256 34.0016 46 34H40C39.7348 34 39.4804 34.1054 39.2929 34.2929C39.1054 34.4804 39 34.7348 39 35V44H34.908C34.9667 43.6698 34.9975 43.3353 35 43V31C34.9984 29.4092 34.3658 27.884 33.2409 26.7591C32.116 25.6342 30.5908 25.0016 29 25H21C20.7348 25 20.4804 25.1054 20.2929 25.2929C20.1054 25.4804 20 25.7348 20 26C20 26.2652 20.1054 26.5196 20.2929 26.7071C20.4804 26.8946 20.7348 27 21 27H29C30.0609 27 31.0783 27.4214 31.8284 28.1716C32.5786 28.9217 33 29.9391 33 31V43C32.9948 43.3382 32.9461 43.6743 32.855 44H32C30.9391 44 29.9217 44.4214 29.1716 45.1716C28.4214 45.9217 28 46.9391 28 48V58C28.0041 58.7043 28.1961 59.3947 28.556 60H26V55C26 54.7348 25.8946 54.4804 25.7071 54.2929C25.5196 54.1054 25.2652 54 25 54H24.387L24.948 52.316C24.9895 52.1912 25.006 52.0595 24.9966 51.9284C24.9872 51.7973 24.9521 51.6693 24.8932 51.5517C24.8343 51.4341 24.7529 51.3293 24.6535 51.2432C24.5541 51.1572 24.4388 51.0915 24.314 51.05C24.1892 51.0085 24.0575 50.992 23.9264 51.0014C23.7953 51.0108 23.6673 51.0459 23.5497 51.1048C23.4321 51.1637 23.3273 51.2451 23.2412 51.3445C23.1552 51.4439 23.0895 51.5592 23.048 51.684L22.28 54H21.535L19.835 51.445C19.6878 51.2243 19.459 51.0712 19.1989 51.0192C18.9388 50.9673 18.6687 51.0208 18.448 51.168C18.2273 51.3152 18.0742 51.544 18.0222 51.8041C17.9703 52.0642 18.0238 52.3343 18.171 52.555L19.132 54H19C18.7348 54 18.4804 54.1054 18.2929 54.2929C18.1054 54.4804 18 54.7348 18 55V60H14.816C15.0733 59.3157 15.0604 58.5591 14.78 57.884C15.4818 57.6959 16.0913 57.259 16.4947 56.6547C16.898 56.0504 17.0678 55.32 16.9724 54.5997C16.8769 53.8794 16.5226 53.2184 15.9757 52.7401C15.4288 52.2618 14.7266 51.9987 14 52H8C7.73478 52 7.48043 52.1054 7.29289 52.2929C7.10536 52.4804 7 52.7348 7 53V57C7 57.2652 7.10536 57.5196 7.29289 57.7071C7.48043 57.8946 7.73478 58 8 58H12C12.2652 58 12.5196 58.1054 12.7071 58.2929C12.8946 58.4804 13 58.7348 13 59C13 59.2652 12.8946 59.5196 12.7071 59.7071C12.5196 59.8946 12.2652 60 12 60H10C9.73478 60 9.48043 60.1054 9.29289 60.2929C9.10536 60.4804 9 60.7348 9 61C9 61.2652 9.10536 61.5196 9.29289 61.7071C9.48043 61.8946 9.73478 62 10 62H54C54.2652 62 54.5196 61.8946 54.7071 61.7071C54.8946 61.5196 55 61.2652 55 61C54.9978 60.2279 54.8159 59.4668 54.4688 58.7771C54.1216 58.0874 53.6188 57.4879 53 57.026V57.026ZM9 56V54H14C14.2652 54 14.5196 54.1054 14.7071 54.2929C14.8946 54.4804 15 54.7348 15 55C15 55.2652 14.8946 55.5196 14.7071 55.7071C14.5196 55.8946 14.2652 56 14 56H9ZM51 54V56.1C50.6709 56.0332 50.3358 55.9997 50 56H48V51C48.7956 51 49.5587 51.3161 50.1213 51.8787C50.6839 52.4413 51 53.2044 51 54ZM41 36H46C46.7956 36 47.5587 36.3161 48.1213 36.8787C48.6839 37.4413 49 38.2044 49 39H41V36ZM41 41H49V45C48.9988 45.9882 48.6307 46.9408 47.967 47.673C47.887 46.6748 47.4347 45.7431 46.6999 45.0628C45.9651 44.3824 45.0014 44.0031 44 44H41V41ZM20 60V56H24V60H20ZM32 60C31.4696 60 30.9609 59.7893 30.5858 59.4142C30.2107 59.0391 30 58.5304 30 58V48C30 47.4696 30.2107 46.9609 30.5858 46.5858C30.9609 46.2107 31.4696 46 32 46H44C44.5304 46 45.0391 46.2107 45.4142 46.5858C45.7893 46.9609 46 47.4696 46 48V60H32ZM48 60V58H50C50.6203 58.0008 51.2251 58.1934 51.7316 58.5514C52.2381 58.9095 52.6214 59.4155 52.829 60H48Z" fill="black"/>
<path d="M44 31C44.9889 31 45.9556 30.7068 46.7779 30.1574C47.6001 29.6079 48.241 28.8271 48.6194 27.9134C48.9978 26.9998 49.0969 25.9945 48.9039 25.0246C48.711 24.0546 48.2348 23.1637 47.5355 22.4645C46.8363 21.7652 45.9454 21.289 44.9755 21.0961C44.0055 20.9031 43.0002 21.0022 42.0866 21.3806C41.173 21.759 40.3921 22.3999 39.8427 23.2222C39.2932 24.0444 39 25.0111 39 26C39.0016 27.3256 39.5289 28.5964 40.4662 29.5338C41.4036 30.4711 42.6744 30.9984 44 31ZM44 23C44.5933 23 45.1734 23.1759 45.6667 23.5056C46.1601 23.8352 46.5446 24.3038 46.7716 24.852C46.9987 25.4001 47.0581 26.0033 46.9424 26.5853C46.8266 27.1672 46.5409 27.7018 46.1213 28.1213C45.7018 28.5409 45.1672 28.8266 44.5853 28.9424C44.0033 29.0581 43.4001 28.9987 42.852 28.7716C42.3038 28.5446 41.8352 28.1601 41.5056 27.6667C41.1759 27.1734 41 26.5933 41 26C41 25.2044 41.3161 24.4413 41.8787 23.8787C42.4413 23.3161 43.2044 23 44 23Z" fill="black"/>
<path d="M44 27C44.5523 27 45 26.5523 45 26C45 25.4477 44.5523 25 44 25C43.4477 25 43 25.4477 43 26C43 26.5523 43.4477 27 44 27Z" fill="black"/>
<path d="M61.966 18.74C61.9311 18.6101 61.8703 18.4886 61.7873 18.3828C61.7043 18.2769 61.6008 18.1889 61.483 18.124L32.483 2.12401C32.3351 2.04242 32.1689 1.99963 32 1.99963C31.8311 1.99963 31.6649 2.04242 31.517 2.12401L2.517 18.124C2.39925 18.189 2.29582 18.277 2.21287 18.3828C2.12993 18.4887 2.06918 18.6101 2.03427 18.74C1.99935 18.8699 1.99099 19.0054 2.00967 19.1386C2.02835 19.2717 2.0737 19.3998 2.143 19.515L5.143 24.515C5.27804 24.7397 5.49591 24.9024 5.74971 24.9681C6.00351 25.0337 6.27295 24.9971 6.5 24.866L32 10.154L43.734 16.925C43.8478 16.9907 43.9734 17.0333 44.1037 17.0504C44.2339 17.0675 44.3663 17.0588 44.4932 17.0248C44.62 16.9907 44.739 16.9321 44.8432 16.852C44.9474 16.772 45.0348 16.6723 45.1005 16.5585C45.1662 16.4447 45.2088 16.3191 45.2259 16.1889C45.243 16.0586 45.2343 15.9262 45.2003 15.7994C45.1662 15.6725 45.1075 15.5535 45.0275 15.4493C44.9475 15.3451 44.8478 15.2577 44.734 15.192L32.5 8.13401C32.348 8.04624 32.1755 8.00004 32 8.00004C31.8245 8.00004 31.652 8.04624 31.5 8.13401L6.352 22.643L4.391 19.375L32 4.14301L59.609 19.375L57.648 22.643L48.2 17.19C48.0862 17.1244 47.9606 17.0817 47.8303 17.0646C47.7001 17.0475 47.5677 17.0562 47.4408 17.0903C47.1846 17.159 46.9661 17.3267 46.8335 17.5565C46.7009 17.7863 46.665 18.0594 46.7337 18.3157C46.8025 18.5719 46.9702 18.7904 47.2 18.923L55 23.423V56C55 56.2652 55.1054 56.5196 55.2929 56.7071C55.4804 56.8947 55.7348 57 56 57C56.2652 57 56.5196 56.8947 56.7071 56.7071C56.8946 56.5196 57 56.2652 57 56V24.578L57.5 24.866C57.7271 24.9971 57.9965 25.0337 58.2503 24.9681C58.5041 24.9024 58.722 24.7397 58.857 24.515L61.857 19.515C61.9263 19.3998 61.9717 19.2718 61.9905 19.1386C62.0092 19.0055 62.0009 18.8699 61.966 18.74Z" fill="black"/>
<path d="M34 20C34.2652 20 34.5196 19.8946 34.7071 19.7071C34.8946 19.5196 35 19.2652 35 19V15C35 14.7348 34.8946 14.4804 34.7071 14.2929C34.5196 14.1054 34.2652 14 34 14H30C29.7348 14 29.4804 14.1054 29.2929 14.2929C29.1054 14.4804 29 14.7348 29 15V19C29 19.2652 29.1054 19.5196 29.2929 19.7071C29.4804 19.8946 29.7348 20 30 20H34ZM31 16H33V18H31V16Z" fill="black"/>
<path d="M29 29H27C26.7806 29 26.5672 29.0721 26.3928 29.2053C26.2184 29.3385 26.0927 29.5253 26.035 29.737L25.418 32H14C13.8481 32 13.6982 32.0347 13.5617 32.1013C13.4252 32.1679 13.3057 32.2648 13.2122 32.3845C13.1187 32.5042 13.0537 32.6436 13.0221 32.7922C12.9905 32.9408 12.9932 33.0946 13.03 33.242L15.03 41.242C15.084 41.4584 15.2088 41.6506 15.3845 41.7879C15.5603 41.9253 15.7769 41.9999 16 42H24C24.2194 42 24.4328 41.9279 24.6072 41.7947C24.7815 41.6615 24.9073 41.4747 24.965 41.263L27.143 33.276L27.149 33.251L27.764 31H29C29.2652 31 29.5196 30.8946 29.7071 30.7071C29.8946 30.5196 30 30.2652 30 30C30 29.7348 29.8946 29.4804 29.7071 29.2929C29.5196 29.1054 29.2652 29 29 29ZM24.327 36H21V34H24.873L24.327 36ZM19 34V36H15.781L15.281 34H19ZM16.281 38H19V40H16.781L16.281 38ZM21 40V38H23.782L23.236 40H21Z" fill="black"/>
</svg>
